<?xml version="1.0" encoding="utf-8"?>
<!-- Generator: Adobe Illustrator 19.0.0, SVG Export Plug-In . SVG Version: 6.00 Build 0)  -->
<svg version="1.1" id="Layer_1" xmlns="http://www.w3.org/2000/svg" xmlns:xlink="http://www.w3.org/1999/xlink" x="0px" y="0px"
	 viewBox="-255 344 100 115" style="enable-background:new -255 334 100 125;" xml:space="preserve">
<style type="text/css">
	.st0{fill:none;stroke:#000000;stroke-width:2;stroke-miterlimit:10;}
	.st1{enable-background:new    ;}
	.turqoise{fill:#00c0b6}
</style>
<g>
	<path class="st0" d="M-176.7,384.3h-19.8h-5.3h-2.5h-5.2h-17.7c-2.5,4.3-3.9,9.3-3.9,14.6c0,0.3,0,0.5,0,0.8l-6,15
		c-0.7,1.8,0.3,3.3,2.2,3.3h3.8v8.2c0,6.3,5.1,11.5,11.5,11.5h4.7v8.9h31.5v-25.1c6.6-5.3,10.7-13.5,10.7-22.6
		C-172.8,393.6-174.3,388.6-176.7,384.3z"/>
	<path class="turqoise" d="M-199.8,371.6c-0.1-4.1,1.6-7.6,4.6-9.5c4-2.6,9.3-1.4,11.9,2.6c2,3.1,1.1,7.1-2,9.1c-2.3,1.5-5.4,0.8-6.9-1.5
		c-1.1-1.7-0.6-4,1.1-5.2c1.3-0.8,2.9-0.5,3.8,0.8c0.6,0.9,0.3,2.1-0.6,2.6c-0.6,0.4-1.4,0.2-1.7-0.4c-0.4-0.6-1.2-0.8-1.9-0.4
		c-0.6,0.4-0.8,1.2-0.4,1.9c1.2,1.8,3.6,2.4,5.5,1.2c2.1-1.4,2.7-4.2,1.4-6.4c-1.6-2.5-5-3.2-7.5-1.6c-3,1.9-3.8,5.9-1.9,8.9
		c2.3,3.6,7.1,4.6,10.6,2.3c2.1-1.3,3.5-3.4,4-5.8c0.5-2.4,0.1-4.9-1.3-7c-3.4-5.2-10.4-6.7-15.6-3.4c-1.2,0.8-2.3,1.8-3.2,3
		c0-2.7,0-5.3,0-6.2c-0.1-3.5-1.9-6.8-4.9-8.7c-4-2.6-9.4-1.5-12,2.6c-1.1,1.6-1.4,3.6-1,5.5c0.4,1.9,1.5,3.5,3.2,4.6
		c2.8,1.8,6.6,1,8.4-1.8c1.5-2.4,0.9-5.6-1.5-7.1c-1-0.6-2.2-0.9-3.3-0.6c-1.1,0.2-2.1,0.9-2.8,1.9c-0.4,0.6-0.2,1.5,0.4,1.9
		c0.6,0.4,1.5,0.2,1.9-0.4c0.2-0.4,0.6-0.6,1.1-0.7c0.4-0.1,0.9,0,1.3,0.2c0.6,0.4,0.9,0.9,1.1,1.5c0.1,0.6,0,1.3-0.3,1.9
		c-1,1.6-3.1,2-4.7,1c-1-0.7-1.7-1.7-2-2.9s0-2.4,0.6-3.5c1.8-2.8,5.6-3.6,8.4-1.8c2.2,1.4,3.6,3.9,3.6,6.5c0,1.3,0,6.9,0,10.3
		c0,1.2,0,2.1,0,2.6c0,0.2,0,0.3,0.1,0.4c0,0.6-0.1,1.2-0.1,1.7s0,1.7,0,3.3c-0.8-1.5-1.9-2.9-3.4-4c-2.7-1.9-6-2.3-8.9-1.5
		c0.2,3.1,1.8,6,4.5,7.9c2.4,1.7,5.2,2.2,7.9,1.7c0,1.8,0,3.6,0,5.2h2.5C-199.8,379.7-199.8,373.1-199.8,371.6z"/>
</g>
</svg>
