<svg xmlns="http://www.w3.org/2000/svg" xmlns:xlink="http://www.w3.org/1999/xlink" version="1.1" x="0px" y="0px" viewBox="0 20 100 75" enable-background="new 0 0 100 100" xml:space="preserve"><ellipse fill="#000000" cx="40.881" cy="57.35" rx="1.875" ry="2.812"/><ellipse fill="#000000" cx="59.631" cy="57.35" rx="1.875" ry="2.812"/><path fill="#000000" d="M16.506,78.125h67.5c0.518,0,0.938-0.42,0.938-0.938V33.129c0-0.519-0.419-0.938-0.938-0.938h-67.5  c-0.518,0-0.938,0.419-0.938,0.938v44.059C15.569,77.705,15.988,78.125,16.506,78.125z M17.444,34.066h65.625V76.25H17.444V34.066z"/><path fill="#000000" d="M89.631,80h-0.938V32.188c0-2.586-2.102-4.688-4.688-4.688h-67.5c-2.585,0-4.688,2.102-4.688,4.688V80  h-0.938c-1.551,0-2.812,1.262-2.812,2.812v1.875c0,1.551,1.262,2.812,2.812,2.812h78.75c1.551,0,2.812-1.262,2.812-2.812v-1.875  C92.444,81.262,91.182,80,89.631,80z M16.506,29.375h67.5c1.551,0,2.812,1.262,2.812,2.812V80H55.881  c-0.518,0-0.938,0.42-0.938,0.938c0,0.232,0,0.938-2.812,0.938h-3.75c-2.812,0-2.812-0.705-2.812-0.938  c0-0.518-0.419-0.938-0.938-0.938H13.694V32.188C13.694,30.637,14.956,29.375,16.506,29.375z M89.631,85.625h-78.75  c-0.516,0-0.938-0.421-0.938-0.938v-1.875c0-0.517,0.421-0.938,0.938-0.938h32.972c0.698,1.873,3.516,1.875,4.528,1.875h3.75  c1.013,0,3.831-0.002,4.528-1.875h32.972c0.516,0,0.938,0.421,0.938,0.938v1.875C90.569,85.204,90.147,85.625,89.631,85.625z"/><path fill="#000000" d="M55.813,63.125c-0.518,0-0.938,0.42-0.938,0.938c0,2.586-2.102,4.688-4.688,4.688s-4.688-2.102-4.688-4.688  c0-0.518-0.419-0.938-0.938-0.938c-0.518,0-0.938,0.42-0.938,0.938c0,3.618,2.944,6.562,6.562,6.562s6.562-2.944,6.562-6.562  C56.751,63.545,56.332,63.125,55.813,63.125z"/></svg>