<svg xmlns="http://www.w3.org/2000/svg" xmlns:xlink="http://www.w3.org/1999/xlink" version="1.1" x="0px" y="0px" viewBox="0 0 100 100" enable-background="new 0 0 100 100" xml:space="preserve"><g><path fill="#000000" d="M49.5,92.3c-23.1,0-41.8-18.8-41.8-41.8c0-23.1,18.8-41.8,41.8-41.8c23.1,0,41.8,18.8,41.8,41.8   C91.4,73.6,72.6,92.3,49.5,92.3z M49.5,10.7c-22,0-39.8,17.9-39.8,39.8s17.9,39.8,39.8,39.8s39.8-17.9,39.8-39.8   S71.5,10.7,49.5,10.7z"/><path fill="#000000" d="M49.6,92.3c-0.3,0-0.7-0.2-0.9-0.5c-0.3-0.5-0.1-1.1,0.3-1.4c12.9-8,20.8-23.3,20.8-39.9   c0-16.8-8.1-32.1-21.1-40.1c-0.5-0.3-0.6-0.9-0.3-1.4c0.3-0.5,0.9-0.6,1.4-0.3c13.6,8.3,22.1,24.3,22.1,41.8   c0,17.3-8.3,33.3-21.8,41.6C50,92.3,49.8,92.3,49.6,92.3z"/><path fill="#000000" d="M90.4,51.5H8.7c-0.6,0-1-0.4-1-1s0.4-1,1-1h81.7c0.6,0,1,0.4,1,1S90.9,51.5,90.4,51.5z"/><path fill="#000000" d="M50.9,35c-12.1,0-23.8-2.5-34.8-7.6c-0.5-0.2-0.7-0.8-0.5-1.3s0.8-0.7,1.3-0.5C27.6,30.5,39,33,50.9,33   c11.1,0,21.8-2.2,31.9-6.5c0.5-0.2,1.1,0,1.3,0.5c0.2,0.5,0,1.1-0.5,1.3C73.2,32.7,62.2,35,50.9,35z"/><path fill="#000000" d="M16.5,75.5c-0.4,0-0.7-0.2-0.9-0.6c-0.2-0.5,0-1.1,0.5-1.3C27,68.6,38.7,66,50.9,66   c11.4,0,22.4,2.2,32.7,6.7c0.5,0.2,0.7,0.8,0.5,1.3c-0.2,0.5-0.8,0.7-1.3,0.5C72.7,70.2,61.9,68,50.9,68c-11.8,0-23.3,2.5-33.9,7.4   C16.8,75.5,16.6,75.5,16.5,75.5z"/><path fill="#000000" d="M49.5,92.3c-0.6,0-1-0.4-1-1V9.7c0-0.6,0.4-1,1-1s1,0.4,1,1v81.7C50.5,91.9,50.1,92.3,49.5,92.3z"/><path fill="#000000" d="M49.4,92.3c-0.2,0-0.4,0-0.5-0.1c-13.6-8.3-22.1-24.3-22.1-41.8c0-17.3,8.3-33.3,21.8-41.6   C49,8.5,49.7,8.7,50,9.1c0.3,0.5,0.1,1.1-0.3,1.4c-12.9,8-20.8,23.3-20.8,39.9c0,16.8,8.1,32.1,21.1,40.1c0.5,0.3,0.6,0.9,0.3,1.4   C50,92.2,49.7,92.3,49.4,92.3z"/></g></svg>
