<svg xmlns="http://www.w3.org/2000/svg" xmlns:xlink="http://www.w3.org/1999/xlink" version="1.1" x="0px" y="0px" viewBox="0 0 100 100" enable-background="new 0 0 100 100" xml:space="preserve"><path d="M64.8,65.6c0,3.1-2.5,5.5-5.5,5.5h-1.7v18.4h-2.7v-21h4.4c1.6,0,2.9-1.3,2.9-2.9V41.5c0-1.6-1.3-2.9-2.9-2.9H40.9  c-1.6,0-2.9,1.3-2.9,2.9v24.1c0,1.6,1.3,2.9,2.9,2.9H45v21h-2.7V71.2h-1.5c-3.1,0-5.5-2.5-5.5-5.5V41.5c0-3.1,2.5-5.5,5.5-5.5h18.4  c3.1,0,5.5,2.5,5.5,5.5V65.6z M39.4,20.6c0-5.9,4.8-10.6,10.6-10.6s10.6,4.8,10.6,10.6s-4.8,10.6-10.6,10.6S39.4,26.5,39.4,20.6z   M42.1,20.6c0,4.4,3.6,8,8,8c4.4,0,8-3.6,8-8c0-4.4-3.6-8-8-8C45.7,12.7,42.1,16.2,42.1,20.6z M31.9,89.5h2.7V74.2h1.2v-2.7h-3.9  V89.5z M18,69.3V48.9c0-1.2,1-2.2,2.2-2.2h12.1V44H20.3c-2.7,0-4.9,2.2-4.9,4.9v20.4c0,2.7,2.2,4.9,4.9,4.9h1v15.3H24v-18h-3.7  C19,71.5,18,70.5,18,69.3z M18.8,31.2c0-5.1,4.1-9.2,9.2-9.2s9.2,4.1,9.2,9.2c0,5.1-4.1,9.2-9.2,9.2S18.8,36.3,18.8,31.2z   M21.5,31.2c0,3.6,2.9,6.5,6.5,6.5s6.5-2.9,6.5-6.5c0-3.6-2.9-6.5-6.5-6.5S21.5,27.6,21.5,31.2z M64.2,74.2h1.2v15.3h2.7v-18h-3.9  V74.2z M79.7,44H67.7v2.7h12.1c1.2,0,2.2,1,2.2,2.2v20.4c0,1.2-1,2.2-2.2,2.2H76v18h2.7V74.2h1c2.7,0,4.9-2.2,4.9-4.9V48.9  C84.6,46.2,82.4,44,79.7,44z M62.8,31.2c0-5.1,4.1-9.2,9.2-9.2c5.1,0,9.2,4.1,9.2,9.2c0,5.1-4.1,9.2-9.2,9.2  C66.9,40.4,62.8,36.3,62.8,31.2z M65.4,31.2c0,3.6,2.9,6.5,6.5,6.5c3.6,0,6.5-2.9,6.5-6.5c0-3.6-2.9-6.5-6.5-6.5  C68.4,24.6,65.4,27.6,65.4,31.2z"/></svg>
